<svg id="visual" viewBox="0 0 900 600" width="900" height="600" xmlns="http://www.w3.org/2000/svg" xmlns:xlink="http://www.w3.org/1999/xlink" version="1.1" preserveAspectRatio="none"><rect x="0" y="0" width="900" height="600" fill="#11191f"></rect><defs><linearGradient id="grad1_0" x1="33.3%" y1="0%" x2="100%" y2="100%"><stop offset="20%" stop-color="#c7235d" stop-opacity="1"></stop><stop offset="80%" stop-color="#c7235d" stop-opacity="1"></stop></linearGradient></defs><defs><linearGradient id="grad1_1" x1="33.3%" y1="0%" x2="100%" y2="100%"><stop offset="20%" stop-color="#c7235d" stop-opacity="1"></stop><stop offset="80%" stop-color="#8c2e71" stop-opacity="1"></stop></linearGradient></defs><defs><linearGradient id="grad1_2" x1="33.3%" y1="0%" x2="100%" y2="100%"><stop offset="20%" stop-color="#4b3368" stop-opacity="1"></stop><stop offset="80%" stop-color="#8c2e71" stop-opacity="1"></stop></linearGradient></defs><defs><linearGradient id="grad1_3" x1="33.3%" y1="0%" x2="100%" y2="100%"><stop offset="20%" stop-color="#4b3368" stop-opacity="1"></stop><stop offset="80%" stop-color="#1b2a47" stop-opacity="1"></stop></linearGradient></defs><defs><linearGradient id="grad1_4" x1="33.3%" y1="0%" x2="100%" y2="100%"><stop offset="20%" stop-color="#11191f" stop-opacity="1"></stop><stop offset="80%" stop-color="#1b2a47" stop-opacity="1"></stop></linearGradient></defs><defs><linearGradient id="grad2_0" x1="0%" y1="0%" x2="66.7%" y2="100%"><stop offset="20%" stop-color="#c7235d" stop-opacity="1"></stop><stop offset="80%" stop-color="#c7235d" stop-opacity="1"></stop></linearGradient></defs><defs><linearGradient id="grad2_1" x1="0%" y1="0%" x2="66.7%" y2="100%"><stop offset="20%" stop-color="#8c2e71" stop-opacity="1"></stop><stop offset="80%" stop-color="#c7235d" stop-opacity="1"></stop></linearGradient></defs><defs><linearGradient id="grad2_2" x1="0%" y1="0%" x2="66.7%" y2="100%"><stop offset="20%" stop-color="#8c2e71" stop-opacity="1"></stop><stop offset="80%" stop-color="#4b3368" stop-opacity="1"></stop></linearGradient></defs><defs><linearGradient id="grad2_3" x1="0%" y1="0%" x2="66.7%" y2="100%"><stop offset="20%" stop-color="#1b2a47" stop-opacity="1"></stop><stop offset="80%" stop-color="#4b3368" stop-opacity="1"></stop></linearGradient></defs><defs><linearGradient id="grad2_4" x1="0%" y1="0%" x2="66.7%" y2="100%"><stop offset="20%" stop-color="#1b2a47" stop-opacity="1"></stop><stop offset="80%" stop-color="#11191f" stop-opacity="1"></stop></linearGradient></defs><g transform="translate(900, 0)"><path d="M0 540.8C-42.7 515.2 -85.4 489.7 -125 466.5C-164.6 443.4 -201.2 422.8 -229.5 397.5C-257.8 372.2 -277.7 342.2 -325.3 325.3C-372.8 308.3 -447.9 304.3 -468.4 270.4C-488.9 236.5 -454.9 172.7 -457.8 122.7C-460.8 72.6 -500.8 36.3 -540.8 0L0 0Z" fill="#122233"></path><path d="M0 432.7C-34.2 412.2 -68.3 391.7 -100 373.2C-131.7 354.7 -161 338.2 -183.6 318C-206.2 297.8 -222.2 273.8 -260.2 260.2C-298.2 246.6 -358.3 243.4 -374.7 216.3C-391.1 189.2 -363.9 138.2 -366.3 98.1C-368.7 58.1 -400.7 29.1 -432.7 0L0 0Z" fill="#2f305a"></path><path d="M0 324.5C-25.6 309.1 -51.2 293.8 -75 279.9C-98.8 266.1 -120.7 253.7 -137.7 238.5C-154.7 223.3 -166.6 205.3 -195.2 195.2C-223.7 185 -268.7 182.6 -281 162.2C-293.3 141.9 -272.9 103.6 -274.7 73.6C-276.5 43.6 -300.5 21.8 -324.5 0L0 0Z" fill="#6b3270"></path><path d="M0 216.3C-17.1 206.1 -34.2 195.9 -50 186.6C-65.9 177.4 -80.5 169.1 -91.8 159C-103.1 148.9 -111.1 136.9 -130.1 130.1C-149.1 123.3 -179.1 121.7 -187.3 108.2C-195.6 94.6 -181.9 69.1 -183.1 49.1C-184.3 29.1 -200.3 14.5 -216.3 0L0 0Z" fill="#ab276a"></path><path d="M0 108.2C-8.5 103 -17.1 97.9 -25 93.3C-32.9 88.7 -40.2 84.6 -45.9 79.5C-51.6 74.4 -55.5 68.4 -65.1 65.1C-74.6 61.7 -89.6 60.9 -93.7 54.1C-97.8 47.3 -91 34.5 -91.6 24.5C-92.2 14.5 -100.2 7.3 -108.2 0L0 0Z" fill="#c7235d"></path></g><g transform="translate(0, 600)"><path d="M0 -540.8C35.2 -492.8 70.4 -444.9 117.8 -439.5C165.1 -434.1 224.6 -471.4 269 -465.9C313.4 -460.4 342.7 -412.1 372.6 -372.6C402.6 -333.2 433.1 -302.5 459.9 -265.5C486.6 -228.5 509.5 -185.3 522.4 -140C535.3 -94.7 538 -47.3 540.8 0L0 0Z" fill="#122233"></path><path d="M0 -432.7C28.2 -394.3 56.3 -355.9 94.2 -351.6C132.1 -347.3 179.7 -377.1 215.2 -372.7C250.7 -368.3 274.2 -329.7 298.1 -298.1C322.1 -266.5 346.5 -242 367.9 -212.4C389.3 -182.8 407.6 -148.2 417.9 -112C428.2 -75.7 430.4 -37.9 432.7 0L0 0Z" fill="#2f305a"></path><path d="M0 -324.5C21.1 -295.7 42.2 -266.9 70.7 -263.7C99.1 -260.5 134.8 -282.9 161.4 -279.6C188 -276.3 205.6 -247.3 223.6 -223.6C241.5 -199.9 259.9 -181.5 275.9 -159.3C292 -137.1 305.7 -111.2 313.4 -84C321.2 -56.8 322.8 -28.4 324.5 0L0 0Z" fill="#6b3270"></path><path d="M0 -216.3C14.1 -197.1 28.2 -177.9 47.1 -175.8C66 -173.7 89.8 -188.6 107.6 -186.4C125.4 -184.2 137.1 -164.9 149.1 -149.1C161 -133.3 173.2 -121 183.9 -106.2C194.6 -91.4 203.8 -74.1 209 -56C214.1 -37.9 215.2 -18.9 216.3 0L0 0Z" fill="#ab276a"></path><path d="M0 -108.2C7 -98.6 14.1 -89 23.6 -87.9C33 -86.8 44.9 -94.3 53.8 -93.2C62.7 -92.1 68.5 -82.4 74.5 -74.5C80.5 -66.6 86.6 -60.5 92 -53.1C97.3 -45.7 101.9 -37.1 104.5 -28C107.1 -18.9 107.6 -9.5 108.2 0L0 0Z" fill="#c7235d"></path></g></svg>