<?xml version="1.0" encoding="UTF-8" standalone="no"?>
<svg
   id="visual"
   viewBox="0 0 900 600"
   width="900"
   height="600"
   version="1.1"
   sodipodi:docname="background-light-flipped.svg"
   inkscape:version="1.1.2 (0a00cf5339, 2022-02-04)"
   xmlns:inkscape="http://www.inkscape.org/namespaces/inkscape"
   xmlns:sodipodi="http://sodipodi.sourceforge.net/DTD/sodipodi-0.dtd"
   xmlns="http://www.w3.org/2000/svg"
   xmlns:svg="http://www.w3.org/2000/svg"
   preserveAspectRatio="none">
  <sodipodi:namedview
     id="namedview554"
     pagecolor="#505050"
     bordercolor="#eeeeee"
     borderopacity="1"
     inkscape:pageshadow="0"
     inkscape:pageopacity="0"
     inkscape:pagecheckerboard="0"
     showgrid="false"
     inkscape:zoom="1.2683333"
     inkscape:cx="449.80289"
     inkscape:cy="299.60578"
     inkscape:window-width="940"
     inkscape:window-height="982"
     inkscape:window-x="35"
     inkscape:window-y="32"
     inkscape:window-maximized="0"
     inkscape:current-layer="visual" />
  <rect
     x="0"
     y="-600"
     width="900"
     height="600"
     fill="#ffffff"
     id="rect457"
     transform="scale(1,-1)" />
  <defs
     id="defs464">
    <linearGradient
       id="grad1_0"
       x1="33.3%"
       y1="0%"
       x2="100%"
       y2="100%">
      <stop
         offset="20%"
         stop-color="#c7235d"
         stop-opacity="1"
         id="stop459" />
      <stop
         offset="80%"
         stop-color="#c7235d"
         stop-opacity="1"
         id="stop461" />
    </linearGradient>
  </defs>
  <defs
     id="defs471">
    <linearGradient
       id="grad1_1"
       x1="33.3%"
       y1="0%"
       x2="100%"
       y2="100%">
      <stop
         offset="20%"
         stop-color="#c7235d"
         stop-opacity="1"
         id="stop466" />
      <stop
         offset="80%"
         stop-color="#db6682"
         stop-opacity="1"
         id="stop468" />
    </linearGradient>
  </defs>
  <defs
     id="defs478">
    <linearGradient
       id="grad1_2"
       x1="33.3%"
       y1="0%"
       x2="100%"
       y2="100%">
      <stop
         offset="20%"
         stop-color="#ec9baa"
         stop-opacity="1"
         id="stop473" />
      <stop
         offset="80%"
         stop-color="#db6682"
         stop-opacity="1"
         id="stop475" />
    </linearGradient>
  </defs>
  <defs
     id="defs485">
    <linearGradient
       id="grad1_3"
       x1="33.3%"
       y1="0%"
       x2="100%"
       y2="100%">
      <stop
         offset="20%"
         stop-color="#ec9baa"
         stop-opacity="1"
         id="stop480" />
      <stop
         offset="80%"
         stop-color="#f8cdd4"
         stop-opacity="1"
         id="stop482" />
    </linearGradient>
  </defs>
  <defs
     id="defs492">
    <linearGradient
       id="grad1_4"
       x1="33.3%"
       y1="0%"
       x2="100%"
       y2="100%">
      <stop
         offset="20%"
         stop-color="#ffffff"
         stop-opacity="1"
         id="stop487" />
      <stop
         offset="80%"
         stop-color="#f8cdd4"
         stop-opacity="1"
         id="stop489" />
    </linearGradient>
  </defs>
  <defs
     id="defs499">
    <linearGradient
       id="grad2_0"
       x1="0%"
       y1="0%"
       x2="66.7%"
       y2="100%">
      <stop
         offset="20%"
         stop-color="#c7235d"
         stop-opacity="1"
         id="stop494" />
      <stop
         offset="80%"
         stop-color="#c7235d"
         stop-opacity="1"
         id="stop496" />
    </linearGradient>
  </defs>
  <defs
     id="defs506">
    <linearGradient
       id="grad2_1"
       x1="0%"
       y1="0%"
       x2="66.7%"
       y2="100%">
      <stop
         offset="20%"
         stop-color="#db6682"
         stop-opacity="1"
         id="stop501" />
      <stop
         offset="80%"
         stop-color="#c7235d"
         stop-opacity="1"
         id="stop503" />
    </linearGradient>
  </defs>
  <defs
     id="defs513">
    <linearGradient
       id="grad2_2"
       x1="0%"
       y1="0%"
       x2="66.7%"
       y2="100%">
      <stop
         offset="20%"
         stop-color="#db6682"
         stop-opacity="1"
         id="stop508" />
      <stop
         offset="80%"
         stop-color="#ec9baa"
         stop-opacity="1"
         id="stop510" />
    </linearGradient>
  </defs>
  <defs
     id="defs520">
    <linearGradient
       id="grad2_3"
       x1="0%"
       y1="0%"
       x2="66.7%"
       y2="100%">
      <stop
         offset="20%"
         stop-color="#f8cdd4"
         stop-opacity="1"
         id="stop515" />
      <stop
         offset="80%"
         stop-color="#ec9baa"
         stop-opacity="1"
         id="stop517" />
    </linearGradient>
  </defs>
  <defs
     id="defs527">
    <linearGradient
       id="grad2_4"
       x1="0%"
       y1="0%"
       x2="66.7%"
       y2="100%">
      <stop
         offset="20%"
         stop-color="#f8cdd4"
         stop-opacity="1"
         id="stop522" />
      <stop
         offset="80%"
         stop-color="#ffffff"
         stop-opacity="1"
         id="stop524" />
    </linearGradient>
  </defs>
  <g
     transform="matrix(1,0,0,-1,900,600)"
     id="g539">
    <path
       d="m 0,540.8 c -42.7,-25.6 -85.4,-51.1 -125,-74.3 -39.6,-23.1 -76.2,-43.7 -104.5,-69 -28.3,-25.3 -48.2,-55.3 -95.8,-72.2 -47.5,-17 -122.6,-21 -143.1,-54.9 -20.5,-33.9 13.5,-97.7 10.6,-147.7 -3,-50.1 -43,-86.4 -83,-122.7 H 0 Z"
       fill="#fce6e9"
       id="path529" />
    <path
       d="m 0,432.7 c -34.2,-20.5 -68.3,-41 -100,-59.5 -31.7,-18.5 -61,-35 -83.6,-55.2 -22.6,-20.2 -38.6,-44.2 -76.6,-57.8 -38,-13.6 -98.1,-16.8 -114.5,-43.9 -16.4,-27.1 10.8,-78.1 8.4,-118.2 -2.4,-40 -34.4,-69 -66.4,-98.1 H 0 Z"
       fill="#f2b4bf"
       id="path531" />
    <path
       d="m 0,324.5 c -25.6,-15.4 -51.2,-30.7 -75,-44.6 -23.8,-13.8 -45.7,-26.2 -62.7,-41.4 -17,-15.2 -28.9,-33.2 -57.5,-43.3 -28.5,-10.2 -73.5,-12.6 -85.8,-33 -12.3,-20.3 8.1,-58.6 6.3,-88.6 -1.8,-30 -25.8,-51.8 -49.8,-73.6 H 0 Z"
       fill="#e48196"
       id="path533" />
    <path
       d="m 0,216.3 c -17.1,-10.2 -34.2,-20.4 -50,-29.7 -15.9,-9.2 -30.5,-17.5 -41.8,-27.6 -11.3,-10.1 -19.3,-22.1 -38.3,-28.9 -19,-6.8 -49,-8.4 -57.2,-21.9 -8.3,-13.6 5.4,-39.1 4.2,-59.1 -1.2,-20 -17.2,-34.6 -33.2,-49.1 H 0 Z"
       fill="#d2496f"
       id="path535" />
    <path
       d="M 0,108.2 C -8.5,103 -17.1,97.9 -25,93.3 -32.9,88.7 -40.2,84.6 -45.9,79.5 -51.6,74.4 -55.5,68.4 -65.1,65.1 -74.6,61.7 -89.6,60.9 -93.7,54.1 -97.8,47.3 -91,34.5 -91.6,24.5 -92.2,14.5 -100.2,7.3 -108.2,0 H 0 Z"
       fill="#c7235d"
       id="path537" />
  </g>
  <g
     transform="scale(1,-1)"
     id="g551">
    <path
       d="m 0,-540.8 c 35.2,48 70.4,95.9 117.8,101.3 47.3,5.4 106.8,-31.9 151.2,-26.4 44.4,5.5 73.7,53.8 103.6,93.3 30,39.4 60.5,70.1 87.3,107.1 26.7,37 49.6,80.2 62.5,125.5 12.9,45.3 15.6,92.7 18.4,140 H 0 Z"
       fill="#fce6e9"
       id="path541" />
    <path
       d="m 0,-432.7 c 28.2,38.4 56.3,76.8 94.2,81.1 37.9,4.3 85.5,-25.5 121,-21.1 35.5,4.4 59,43 82.9,74.6 24,31.6 48.4,56.1 69.8,85.7 21.4,29.6 39.7,64.2 50,100.4 10.3,36.3 12.5,74.1 14.8,112 H 0 Z"
       fill="#f2b4bf"
       id="path543" />
    <path
       d="m 0,-324.5 c 21.1,28.8 42.2,57.6 70.7,60.8 28.4,3.2 64.1,-19.2 90.7,-15.9 26.6,3.3 44.2,32.3 62.2,56 17.9,23.7 36.3,42.1 52.3,64.3 16.1,22.2 29.8,48.1 37.5,75.3 7.8,27.2 9.4,55.6 11.1,84 H 0 Z"
       fill="#e48196"
       id="path545" />
    <path
       d="m 0,-216.3 c 14.1,19.2 28.2,38.4 47.1,40.5 18.9,2.1 42.7,-12.8 60.5,-10.6 17.8,2.2 29.5,21.5 41.5,37.3 11.9,15.8 24.1,28.1 34.8,42.9 10.7,14.8 19.9,32.1 25.1,50.2 5.1,18.1 6.2,37.1 7.3,56 H 0 Z"
       fill="#d2496f"
       id="path547" />
    <path
       d="m 0,-108.2 c 7,9.6 14.1,19.2 23.6,20.3 9.4,1.1 21.3,-6.4 30.2,-5.3 8.9,1.1 14.7,10.8 20.7,18.7 6,7.9 12.1,14 17.5,21.4 5.3,7.4 9.9,16 12.5,25.1 2.6,9.1 3.1,18.5 3.7,28 H 0 Z"
       fill="#c7235d"
       id="path549" />
  </g>
</svg>
