<?xml version="1.0" encoding="UTF-8" standalone="no"?>
<svg
   id="Réteg_1"
   data-name="Réteg 1"
   viewBox="0 0 1895.7859 539.35309"
   version="1.1"
   sodipodi:docname="authentura logo no gradient.svg"
   inkscape:version="1.1.2 (0a00cf5339, 2022-02-04)"
   width="1895.7858"
   height="539.35309"
   inkscape:export-filename="/var/home/sboyden/Downloads/authentura logo.png"
   inkscape:export-xdpi="96"
   inkscape:export-ydpi="96"
   xmlns:inkscape="http://www.inkscape.org/namespaces/inkscape"
   xmlns:sodipodi="http://sodipodi.sourceforge.net/DTD/sodipodi-0.dtd"
   xmlns="http://www.w3.org/2000/svg"
   xmlns:svg="http://www.w3.org/2000/svg">
  <sodipodi:namedview
     id="namedview56"
     pagecolor="#ffffff"
     bordercolor="#666666"
     borderopacity="1.0"
     inkscape:pageshadow="2"
     inkscape:pageopacity="0.0"
     inkscape:pagecheckerboard="true"
     showgrid="false"
     inkscape:zoom="0.66318604"
     inkscape:cx="811.98935"
     inkscape:cy="156.81874"
     inkscape:window-width="1260"
     inkscape:window-height="982"
     inkscape:window-x="35"
     inkscape:window-y="32"
     inkscape:window-maximized="0"
     inkscape:current-layer="layer1"
     inkscape:snap-global="true"
     fit-margin-top="0"
     fit-margin-left="0"
     fit-margin-right="1"
     fit-margin-bottom="0"
     borderlayer="false"
     lock-margins="false"
     width="1874px" />
  <defs
     id="defs13">
    <linearGradient
       id="Névtelen_színátmenet_22"
       x1="1553.65"
       y1="2307.3401"
       x2="3445.21"
       y2="2307.3401"
       gradientTransform="translate(-1.8,119.31)"
       gradientUnits="userSpaceOnUse">
      <stop
         offset="0.32"
         stop-color="#c7235d"
         id="stop2771" />
      <stop
         offset="0.38"
         stop-color="#5d102b"
         id="stop2773" />
      <stop
         offset="0.43"
         stop-color="#1a050c"
         id="stop2775" />
      <stop
         offset="0.45"
         id="stop2777" />
    </linearGradient>
    <style
       id="style2">.cls-1{fill:#fff;}.cls-2{fill:none;}.cls-3,.cls-4{font-size:372.31px;font-family:ReadexPro-Medium, Readex Pro;font-weight:500;}.cls-4{letter-spacing:-0.01em;}.cls-5{letter-spacing:0em;}.cls-6{letter-spacing:-0.02em;}.cls-7{letter-spacing:0em;}.cls-8{fill:url(#Névtelen_színátmenet_22);}.cls-9{fill:#c7235d;}</style>
    <linearGradient
       id="N__vtelen_sz__n__tmenet_22"
       x1="1553.65"
       y1="2307.3401"
       x2="3445.21"
       y2="2307.3401"
       gradientTransform="translate(-1.8,119.31)"
       gradientUnits="userSpaceOnUse">
      <stop
         offset="0.07487039"
         stop-color="#c7235d"
         id="stop4"
         style="stop-color:#c7235d;stop-opacity:1" />
      <stop
         offset="0.72498941"
         stop-color="#5d102b"
         id="stop6" />
      <stop
         offset="0.85815269"
         stop-color="#1a050c"
         id="stop8" />
      <stop
         offset="0.90410316"
         id="stop10" />
    </linearGradient>
  </defs>
  <g
     inkscape:groupmode="layer"
     id="layer4"
     inkscape:label="Main"
     style="display:inline"
     transform="translate(-0.3386706)">
    <g
       inkscape:groupmode="layer"
       id="layer3"
       inkscape:label="Layer 3"
       style="display:inline">
      <g
         aria-label="e"
         transform="matrix(0.98,0,0,1,768.73,535.63)"
         id="text19"
         class="cls-3"
         style="font-weight:500;font-size:372.31px;font-family:ReadexPro-Medium, 'Readex Pro';display:inline">
        <path
           d="M 118.76689,3.7231 Q 87.865159,3.7231 64.03732,-8.9354399 40.58179,-21.96629 27.17863,-44.30489 14.14778,-67.0158 14.14778,-96.428289 14.14778,-119.51151 21.59398,-138.49932 29.04018,-157.48713 42.44334,-171.2626 55.8465,-185.41038 74.08969,-192.85658 92.705189,-200.67509 114.29917,-200.67509 134.0316,-200.67509 150.41324,-193.22889 167.16719,-185.78269 179.45342,-172.75184 191.73965,-160.0933 198.06892,-142.22242 204.7705,-124.72385 204.39819,-103.87449 L 204.02588,-87.492849 H 45.42182 L 36.48638,-119.1392 H 165.67795 L 160.0933,-112.80993 V -121.37306 Q 158.97637,-132.54236 152.6471,-141.10549 146.31783,-150.04093 136.26546,-154.88096 126.5854,-160.0933 114.67148,-160.0933 96.428289,-160.0933 83.769749,-153.01941 71.11121,-146.31783 64.40963,-132.91467 58.08036,-119.51151 58.08036,-99.779079 58.08036,-80.791269 65.89887,-66.64349 74.08969,-52.49571 88.982089,-44.6772 103.87449,-36.85869 123.60692,-36.85869 137.38239,-36.85869 148.924,-41.32641 160.83792,-45.79413 174.24108,-57.33574 L 196.57968,-26.0617 Q 186.52731,-16.75395 173.49646,-10.05237 160.83792,-3.7231 146.69014,0 132.54236,3.7231 118.76689,3.7231 Z"
           id="path79" />
      </g>
      <path
         id="rect21"
         d="M 838.9399,496.47 H 907.3399 C 907.7831,496.47 908.1399,496.8268 908.1399,497.27 V 526.67 C 908.1399,527.1132 907.7831,527.47 907.3399,527.47 H 838.9399 C 838.4967,527.47 838.1399,527.1132 838.1399,526.67 V 497.27 C 838.1399,496.8268 838.4967,496.47 838.9399,496.47 Z"
         style="display:inline" />
      <path
         class="cls-9"
         d="M 912.44,523.35 C 897.67,523.84 883.7,524.23 869.75,524.84 867.64,524.94 866.75,521.93 865.75,519.51 Q 845.48,473.73 825.28,427.84 C 809.21,391.41 793.21,354.84 777,318.67 774.72,313.57 774.82,309.61 776,304.77 A 45.17,45.17 0 0 1 785.83,285.88 C 789.78,281.09 794.12,277.78 798.37,274.08 800.93,271.85 802.31,273.08 804.09,277.19 Q 823.83,322.43 843.75,367.37 876.75,442.04 909.7,516.65 C 910.48,518.47 911.19,520.3 912.44,523.35 Z"
         id="path49"
         style="display:inline" />
      <path
         id="rect53"
         d="M 792.1399,416.47 H 927.1399 V 447.47 H 792.1399 Z"
         style="display:inline" />
      <path
         class="cls-9"
         d="M 985.29,13.75 C 988.67003,21.84 992.00003,29.95 995.43003,38.02 999.43003,47.43 1003.56,56.78 1007.52,66.21 1012.52,78.15 1017.52,90.1 1022.64,101.98 1025.64,108.98 1028.55,116.05 1031.42,123.12 1036.64,136 1042.17,148.74 1047.57,161.54 A 27.63,27.63 0 0 0 1049.41,165.86 C 1053.88,172.79 1053.06,180.06 1051.03,187.78 1045.57,208.6 1036.17,226.97 1018.03,240.26 1004.03,250.55 988.03,255.7 971.22,258.5 948.07,262.37 924.92,261.76 901.78,260.72 876.78,259.59 851.91,257.09 826.78,258.38 813.97,259.04 801.31,260.67 789.45,266.38 776.5,272.57 769.01,282.83 766.05,296.45 765.77,297.74 766.33,299.45 764.6,300.27 Q 750.93,267.75 737.26,235.27 C 722.83,201.1 708.63,166.81 693.69,132.86 690.13,124.77 691.69,117.86 694.94,110.54 701.16,96.760002 712.87,89.83 726.94,86.14 743.22,81.89 759.71,81.91 776.19,82.32 804.57,83.04 832.78,86.08 861.24,85.59 882.94,85.22 904.45,83.3 924.99,74.79 947.7,65.39 963.05,49.12 971.85,26.59 975.12,18.23 977.04,9.59 979.03,0 Z"
         id="path51"
         style="display:inline" />
    </g>
    <g
       inkscape:groupmode="layer"
       id="layer2"
       inkscape:label="Layer 2"
       style="display:inline">
      <g
         aria-label="auth  ntura"
         transform="matrix(0.98,0,0,1,-16.39,532.02)"
         id="text29"
         class="cls-4"
         style="font-weight:500;font-size:372.31px;font-family:ReadexPro-Medium, 'Readex Pro';letter-spacing:-0.01em">
        <path
           d="M 1045.8214,0 V -196.20737 H 1090.1263 L 1090.8709,-155.99789 1082.3078,-151.53017 Q 1086.4032,-164.56102 1096.8279,-175.35801 1107.6249,-186.52731 1122.5173,-193.22889 1137.4097,-200.30278 1153.419,-200.30278 1175.7576,-200.30278 1190.65,-191.36734 1205.9147,-182.4319 1213.3609,-164.56102 1220.8071,-146.69014 1220.8071,-119.88382 V 0 H 1175.3853 V -116.53303 Q 1175.3853,-131.79774 1171.2899,-141.4778 1167.1945,-151.53017 1158.6313,-155.99789 1150.0682,-160.83792 1137.782,-160.0933 1127.7296,-160.0933 1119.1665,-156.74251 1110.6033,-153.76403 1104.2741,-147.80707 1098.3171,-142.22242 1094.594,-134.40391 1091.2432,-126.95771 1091.2432,-118.02227 V 0 H 1068.5323 Q 1062.203,0 1056.2461,0 1050.6614,0 1045.8214,0 Z"
           style="letter-spacing:0em"
           id="path67" />
        <path
           d="M 1294.1518,0 V -246.09691 H 1339.5736 V 0 Z M 1255.4316,-153.76403 V -196.20737 H 1382.3893 V -153.76403 Z"
           style="letter-spacing:0em"
           id="path69" />
        <path
           d="M 1485.5192,3.7231 Q 1464.2975,3.7231 1448.6605,-5.95696 1433.3958,-15.63702 1424.8327,-33.13559 1416.6418,-50.63416 1416.6418,-75.20662 V -196.20737 H 1462.0637 V -84.886679 Q 1462.0637,-61.80346 1472.8606,-48.4003 1484.0299,-34.99714 1503.7624,-34.99714 1513.4424,-34.99714 1521.2609,-37.97562 1529.4518,-41.32641 1535.4087,-46.91106 1541.3657,-52.86802 1544.7165,-61.05884 1548.0673,-69.24966 1548.0673,-78.557409 V -196.20737 H 1593.4891 V 0 H 1549.1842 L 1548.4396,-40.9541 1556.6304,-45.42182 Q 1552.1627,-31.64635 1541.3657,-20.47705 1530.941,-9.3077499 1516.4209,-2.60617 1501.9008,3.7231 1485.5192,3.7231 Z"
           style="letter-spacing:0em"
           id="path71" />
        <path
           d="M 1647.4664,0 V -196.20737 H 1692.1436 L 1692.8882,-133.65929 1686.9312,-147.80707 Q 1691.0266,-162.69947 1701.079,-174.61339 1711.1314,-186.52731 1724.1622,-193.22889 1737.5654,-200.30278 1751.7132,-200.30278 1758.0424,-200.30278 1763.6271,-199.18585 1769.584,-198.06892 1773.3071,-196.57968 L 1761.3932,-146.69014 Q 1756.9255,-148.924 1750.9685,-150.04093 1745.3839,-151.53017 1739.4269,-151.53017 1729.7469,-151.53017 1721.1837,-147.80707 1712.9929,-144.45628 1706.6636,-138.12701 1700.7067,-131.79774 1696.9836,-123.23461 1693.2605,-115.04379 1693.2605,-104.99142 V 0 Z"
           style="letter-spacing:-0.02em"
           id="path73" />
        <path
           d="M 1908.0816,0 V -125.46847 Q 1908.0816,-141.4778 1897.2846,-150.41324 1886.8599,-159.72099 1870.106,-159.72099 1854.469,-159.72099 1841.8104,-153.39172 1829.1519,-147.43476 1818.3549,-134.0316 L 1790.0593,-162.32716 Q 1807.5579,-180.94266 1828.7796,-190.62272 1850.0012,-200.30278 1874.5737,-200.30278 1898.0292,-200.30278 1914.7832,-192.85658 1931.9094,-185.41038 1941.2172,-170.51798 1950.5249,-155.99789 1950.5249,-134.77622 V 0 Z M 1852.2351,3.7231 Q 1833.2473,3.7231 1818.3549,-3.7231 1803.4625,-11.1693 1794.527,-24.20015 1785.9639,-37.60331 1785.9639,-55.47419 1785.9639,-71.11121 1791.5486,-82.652819 1797.1332,-94.566739 1807.9302,-102.38525 1819.0995,-110.20376 1835.4811,-113.92686 1852.2351,-118.02227 1873.8291,-118.02227 H 1930.0479 L 1926.6971,-85.258989 H 1871.2229 Q 1861.1705,-85.258989 1853.352,-83.397439 1845.5335,-81.535889 1839.9489,-77.812789 1834.3642,-74.08969 1831.758,-68.87735 1829.1519,-64.03732 1829.1519,-56.96343 1829.1519,-49.51723 1832.875,-43.93258 1836.5981,-38.72024 1842.9273,-35.74176 1849.2566,-32.76328 1857.8197,-32.76328 1870.106,-32.76328 1880.903,-36.85869 1892.0723,-40.9541 1900.6354,-48.4003 1909.1985,-55.8465 1914.0385,-65.15425 L 1923.3463,-39.83717 Q 1915.5278,-26.80632 1903.9862,-17.12626 1892.8169,-7.4462 1879.4137,-1.86155 1866.3829,3.7231 1852.2351,3.7231 Z"
           style="letter-spacing:0em"
           id="path75" />
      </g>
    </g>
    <g
       inkscape:groupmode="layer"
       id="layer1"
       inkscape:label="Layer 1"
       style="display:inline;mix-blend-mode:normal">
      <path
         class="cls-8"
         d="M 572.59207,532.05211 V 256.51211 H 616.65207 V 376.02211 L 608.33207,380.51211 A 60.83,60.83 0 0 1 622.71207,356.51211 82.42,82.42 0 0 1 647.71207,338.64211 69.92,69.92 0 0 1 677.93207,331.75211 Q 699.79207,331.75211 714.54207,340.69211 729.29207,349.63211 736.54207,367.49211 743.82207,385.37211 743.82207,412.17211 V 532.05211 H 699.33207 V 415.51211 Q 699.33207,400.25211 695.33207,390.38211 A 28,28 0 0 0 682.94207,375.86211 Q 674.57207,371.21211 662.55207,371.95211 A 51.08,51.08 0 0 0 644.34207,375.12211 41.79,41.79 0 0 0 629.96207,384.05211 42.93,42.93 0 0 0 620.49207,397.46211 39.59,39.59 0 0 0 617.03207,414.02211 V 532.02211 H 572.60207 Z"
         id="path1882"
         style="display:inline;opacity:1;mix-blend-mode:normal;fill:#c7235d;fill-opacity:1;fill-rule:nonzero" />
      <path
         class="cls-8"
         d="M 413.94703,378.25309 V 335.81309 H 538.10703 V 378.25309 Z M 451.81703,532.01309 V 285.92309 H 496.24703 V 532.01309 Z"
         id="path1879"
         style="mix-blend-mode:normal;fill:#c7235d;fill-opacity:1" />
      <path
         class="cls-8"
         d="M 272.08697,535.74263 Q 251.32697,535.74263 236.21697,526.06263 221.10697,516.38263 212.91697,498.88263 204.72697,481.39263 204.72697,456.81263 V 335.81263 H 249.15697 V 447.13263 Q 249.15697,470.22263 259.89697,483.61263 270.63697,497.00263 289.89697,497.02263 A 45.62,45.62 0 0 0 307.19697,493.85263 40.19,40.19 0 0 0 329.95697,470.96263 46.79,46.79 0 0 0 333.23697,453.46263 V 335.81263 H 377.66697 V 532.01263 H 334.32697 L 333.59697,491.06263 341.59697,486.59263 A 65.36,65.36 0 0 1 326.84697,511.59263 77,77 0 0 1 302.26697,529.27263 71.72,71.72 0 0 1 272.08697,535.74263 Z"
         id="path1876"
         style="mix-blend-mode:normal;fill:#c7235d;fill-opacity:1" />
      <path
         class="cls-8"
         d="M 65.158671,535.75 Q 46.588671,535.75 32.018671,528.3 A 59,59 0 0 1 8.8886706,507.64 Q 0.3386706,494.42 0.3386706,476.55 0.3386706,460.92 5.7986706,449.19 A 49.93,49.93 0 0 1 21.998671,429.64 Q 32.738671,421.82 48.998671,417.91 65.258671,414 86.328671,414 H 141.32867 L 138.05867,446.77 H 83.788671 A 74.32,74.32 0 0 0 66.308671,448.63 39.75,39.75 0 0 0 53.198671,454.21 23.65,23.65 0 0 0 45.198671,462.96 26.5,26.5 0 0 0 42.648671,475.06 22.41,22.41 0 0 0 46.288671,487.91 24.19,24.19 0 0 0 56.128671,496.28 33.14,33.14 0 0 0 70.688671,499.28 63.31,63.31 0 0 0 93.448673,495.19 61.34,61.34 0 0 0 112.56867,483.64 56.51,56.51 0 0 0 125.67867,466.89 L 134.78867,492.21 A 90.77,90.77 0 0 1 116.02867,514.92 91.74,91.74 0 0 1 92.028673,530.18 66.76,66.76 0 0 1 65.158671,535.75 Z M 119.78867,532.02 V 406.56 Q 119.78867,390.56 109.40867,381.43 99.028671,372.3 82.638671,372.3 A 61.35,61.35 0 0 0 54.958671,378.45 Q 42.588671,384.59 32.018671,397.99 L 4.3386706,369.7 Q 21.458671,351.09 42.218671,341.4 A 104.72,104.72 0 0 1 87.008671,331.72 Q 110.00867,331.72 126.51867,339.17 A 56.76,56.76 0 0 1 152.19867,361.32 Q 161.29867,376.04 161.29867,397.25 V 532.02 Z"
         id="path1873"
         style="mix-blend-mode:normal;fill:#c7235d;fill-opacity:1"
         inkscape:label="path1873" />
    </g>
  </g>
</svg>
