<?xml version="1.0" encoding="UTF-8" standalone="no"?>
<svg
   id="Réteg_1"
   data-name="Réteg 1"
   viewBox="0 0 1899.7633 547.75208"
   version="1.1"
   sodipodi:docname="authentura logo light no gradient.svg"
   inkscape:version="1.1.2 (0a00cf5339, 2022-02-04)"
   width="1899.7632"
   height="547.75208"
   inkscape:export-filename="/var/home/sboyden/Downloads/authentura logo.png"
   inkscape:export-xdpi="96"
   inkscape:export-ydpi="96"
   xmlns:inkscape="http://www.inkscape.org/namespaces/inkscape"
   xmlns:sodipodi="http://sodipodi.sourceforge.net/DTD/sodipodi-0.dtd"
   xmlns="http://www.w3.org/2000/svg"
   xmlns:svg="http://www.w3.org/2000/svg">
  <sodipodi:namedview
     id="namedview56"
     pagecolor="#ffffff"
     bordercolor="#666666"
     borderopacity="1.0"
     inkscape:pageshadow="2"
     inkscape:pageopacity="0.0"
     inkscape:pagecheckerboard="true"
     showgrid="false"
     inkscape:zoom="0.49817485"
     inkscape:cx="665.42902"
     inkscape:cy="648.36673"
     inkscape:window-width="1260"
     inkscape:window-height="982"
     inkscape:window-x="35"
     inkscape:window-y="32"
     inkscape:window-maximized="0"
     inkscape:current-layer="layer3"
     inkscape:snap-global="true"
     fit-margin-top="0"
     fit-margin-left="0"
     fit-margin-right="1"
     fit-margin-bottom="0"
     borderlayer="false"
     lock-margins="false"
     width="1874px" />
  <defs
     id="defs13">
    <linearGradient
       id="Névtelen_színátmenet_22"
       x1="1553.65"
       y1="2307.3401"
       x2="3445.21"
       y2="2307.3401"
       gradientTransform="translate(-1.8,119.31)"
       gradientUnits="userSpaceOnUse">
      <stop
         offset="0.32"
         stop-color="#c7235d"
         id="stop2771" />
      <stop
         offset="0.38"
         stop-color="#5d102b"
         id="stop2773" />
      <stop
         offset="0.43"
         stop-color="#1a050c"
         id="stop2775" />
      <stop
         offset="0.45"
         id="stop2777" />
    </linearGradient>
    <style
       id="style2">.cls-1{fill:#fff;}.cls-2{fill:none;}.cls-3,.cls-4{font-size:372.31px;font-family:ReadexPro-Medium, Readex Pro;font-weight:500;}.cls-4{letter-spacing:-0.01em;}.cls-5{letter-spacing:0em;}.cls-6{letter-spacing:-0.02em;}.cls-7{letter-spacing:0em;}.cls-8{fill:url(#Névtelen_színátmenet_22);}.cls-9{fill:#c7235d;}</style>
    <linearGradient
       id="N__vtelen_sz__n__tmenet_22"
       x1="1553.65"
       y1="2307.3401"
       x2="3445.21"
       y2="2307.3401"
       gradientTransform="translate(-1.8,119.31)"
       gradientUnits="userSpaceOnUse">
      <stop
         offset="0.07487039"
         stop-color="#c7235d"
         id="stop4"
         style="stop-color:#c7235d;stop-opacity:1" />
      <stop
         offset="1"
         id="stop10"
         style="stop-color:#ffffff;stop-opacity:1" />
    </linearGradient>
  </defs>
  <g
     inkscape:groupmode="layer"
     id="layer4"
     inkscape:label="Main"
     style="display:inline"
     transform="translate(1.6576224,6.3808594)">
    <g
       inkscape:groupmode="layer"
       id="layer3"
       inkscape:label="Layer 3"
       style="display:inline">
      <g
         aria-label="e"
         transform="matrix(0.98,0,0,1,768.73,535.63)"
         id="text19"
         class="cls-3"
         style="font-weight:500;font-size:372.31px;font-family:ReadexPro-Medium, 'Readex Pro';display:inline;fill:#ffffff">
        <path
           d="M 118.76689,3.7231 Q 87.865159,3.7231 64.03732,-8.9354399 40.58179,-21.96629 27.17863,-44.30489 14.14778,-67.0158 14.14778,-96.428289 q 0,-23.083221 7.4462,-42.071031 7.4462,-18.98781 20.84936,-32.76328 13.40316,-14.14778 31.64635,-21.59398 18.615499,-7.81851 40.20948,-7.81851 19.73243,0 36.11407,7.4462 16.75395,7.4462 29.04018,20.47705 12.28623,12.65854 18.6155,30.52942 6.70158,17.49857 6.32927,38.34793 l -0.37231,16.381641 H 45.42182 L 36.48638,-119.1392 h 129.19157 l -5.58465,6.32927 v -8.56313 q -1.11693,-11.1693 -7.4462,-19.73243 -6.32927,-8.93544 -16.38164,-13.77547 -9.68006,-5.21234 -21.59398,-5.21234 -18.243191,0 -30.901731,7.07389 -12.658539,6.70158 -19.360119,20.10474 -6.32927,13.40316 -6.32927,33.135591 0,18.98781 7.81851,33.135589 8.19082,14.14778 23.083219,21.96629 14.892401,7.81851 34.624831,7.81851 13.77547,0 25.31708,-4.46772 11.91392,-4.46772 25.31708,-16.00933 l 22.3386,31.27404 q -10.05237,9.30775 -23.08322,16.00933 Q 160.83792,-3.7231 146.69014,0 132.54236,3.7231 118.76689,3.7231 Z"
           id="path79"
           style="fill:#ffffff" />
      </g>
      <path
         id="rect21"
         d="m 838.9399,496.47 h 68.4 c 0.4432,0 0.8,0.3568 0.8,0.8 v 29.4 c 0,0.4432 -0.3568,0.8 -0.8,0.8 h -68.4 c -0.4432,0 -0.8,-0.3568 -0.8,-0.8 v -29.4 c 0,-0.4432 0.3568,-0.8 0.8,-0.8 z"
         style="display:inline;fill:#ffffff" />
      <path
         class="cls-9"
         d="m 912.44,523.35 c -14.77,0.49 -28.74,0.88 -42.69,1.49 -2.11,0.1 -3,-2.91 -4,-5.33 q -20.27,-45.78 -40.47,-91.67 c -16.07,-36.43 -32.07,-73 -48.28,-109.17 -2.28,-5.1 -2.18,-9.06 -1,-13.9 a 45.17,45.17 0 0 1 9.83,-18.89 c 3.95,-4.79 8.29,-8.1 12.54,-11.8 2.56,-2.23 3.94,-1 5.72,3.11 q 19.74,45.24 39.66,90.18 33,74.67 65.95,149.28 c 0.78,1.82 1.49,3.65 2.74,6.7 z"
         id="path49"
         style="display:inline" />
      <path
         id="rect53"
         d="m 792.1399,416.47 h 135 v 31 h -135 z"
         style="display:inline;fill:#ffffff" />
      <path
         class="cls-9"
         d="m 985.29,13.75 c 3.38003,8.09 6.71003,16.2 10.14003,24.27 4,9.41 8.12997,18.76 12.08997,28.19 5,11.94 10,23.89 15.12,35.77 3,7 5.91,14.07 8.78,21.14 5.22,12.88 10.75,25.62 16.15,38.42 a 27.63,27.63 0 0 0 1.84,4.32 c 4.47,6.93 3.65,14.2 1.62,21.92 -5.46,20.82 -14.86,39.19 -33,52.48 -14,10.29 -30,15.44 -46.81,18.24 -23.15,3.87 -46.3,3.26 -69.44,2.22 -25,-1.13 -49.87,-3.63 -75,-2.34 -12.81,0.66 -25.47,2.29 -37.33,8 -12.95,6.19 -20.44,16.45 -23.4,30.07 -0.28,1.29 0.28,3 -1.45,3.82 q -13.67,-32.52 -27.34,-65 c -14.43,-34.17 -28.63,-68.46 -43.57,-102.41 -3.56,-8.09 -2,-15 1.25,-22.32 6.22,-13.779998 17.93,-20.71 32,-24.4 16.28,-4.25 32.77,-4.23 49.25,-3.82 28.38,0.72 56.59,3.76 85.05,3.27 21.7,-0.37 43.21,-2.29 63.75,-10.8 22.71,-9.4 38.06,-25.67 46.86,-48.2 3.27,-8.36 5.19,-17 7.18,-26.59 z"
         id="path51"
         style="display:inline" />
    </g>
    <g
       inkscape:groupmode="layer"
       id="layer2"
       inkscape:label="Layer 2"
       style="display:inline">
      <g
         aria-label="auth  ntura"
         transform="matrix(0.98,0,0,1,-16.39,532.02)"
         id="text29"
         class="cls-4"
         style="font-weight:500;font-size:372.31px;font-family:ReadexPro-Medium, 'Readex Pro';letter-spacing:-0.01em;fill:#ffffff">
        <path
           d="m 1045.8214,0 v -196.20737 h 44.3049 l 0.7446,40.20948 -8.5631,4.46772 q 4.0954,-13.03085 14.5201,-23.82784 10.797,-11.1693 25.6894,-17.87088 14.8924,-7.07389 30.9017,-7.07389 22.3386,0 37.231,8.93544 15.2647,8.93544 22.7109,26.80632 7.4462,17.87088 7.4462,44.6772 V 0 h -45.4218 v -116.53303 q 0,-15.26471 -4.0954,-24.94477 -4.0954,-10.05237 -12.6586,-14.52009 -8.5631,-4.84003 -20.8493,-4.09541 -10.0524,0 -18.6155,3.35079 -8.5632,2.97848 -14.8924,8.93544 -5.957,5.58465 -9.6801,13.40316 -3.3508,7.4462 -3.3508,16.38164 V 0 h -22.7109 q -6.3293,0 -12.2862,0 -5.5847,0 -10.4247,0 z"
           style="letter-spacing:0em;fill:#ffffff"
           id="path67" />
        <path
           d="m 1294.1518,0 v -246.09691 h 45.4218 V 0 Z m -38.7202,-153.76403 v -42.44334 h 126.9577 v 42.44334 z"
           style="letter-spacing:0em;fill:#ffffff"
           id="path69" />
        <path
           d="m 1485.5192,3.7231 q -21.2217,0 -36.8587,-9.68006 -15.2647,-9.68006 -23.8278,-27.17863 -8.1909,-17.49857 -8.1909,-42.07103 v -121.00075 h 45.4219 v 111.320691 q 0,23.083219 10.7969,36.486379 11.1693,13.40316 30.9018,13.40316 9.68,0 17.4985,-2.97848 8.1909,-3.35079 14.1478,-8.93544 5.957,-5.95696 9.3078,-14.14778 3.3508,-8.19082 3.3508,-17.498569 V -196.20737 h 45.4218 V 0 h -44.3049 l -0.7446,-40.9541 8.1908,-4.46772 q -4.4677,13.77547 -15.2647,24.94477 -10.4247,11.1693001 -24.9448,17.87088 -14.5201,6.32927 -30.9017,6.32927 z"
           style="letter-spacing:0em;fill:#ffffff"
           id="path71" />
        <path
           d="m 1647.4664,0 v -196.20737 h 44.6772 l 0.7446,62.54808 -5.957,-14.14778 q 4.0954,-14.8924 14.1478,-26.80632 10.0524,-11.91392 23.0832,-18.6155 13.4032,-7.07389 27.551,-7.07389 6.3292,0 11.9139,1.11693 5.9569,1.11693 9.68,2.60617 l -11.9139,49.88954 q -4.4677,-2.23386 -10.4247,-3.35079 -5.5846,-1.48924 -11.5416,-1.48924 -9.68,0 -18.2432,3.7231 -8.1908,3.35079 -14.5201,9.68006 -5.9569,6.32927 -9.68,14.8924 -3.7231,8.19082 -3.7231,18.24319 V 0 Z"
           style="letter-spacing:-0.02em;fill:#ffffff"
           id="path73" />
        <path
           d="m 1908.0816,0 v -125.46847 q 0,-16.00933 -10.797,-24.94477 -10.4247,-9.30775 -27.1786,-9.30775 -15.637,0 -28.2956,6.32927 -12.6585,5.95696 -23.4555,19.36012 l -28.2956,-28.29556 q 17.4986,-18.6155 38.7203,-28.29556 21.2216,-9.68006 45.7941,-9.68006 23.4555,0 40.2095,7.4462 17.1262,7.4462 26.434,22.3386 9.3077,14.52009 9.3077,35.74176 V 0 Z m -55.8465,3.7231 q -18.9878,0 -33.8802,-7.4462 -14.8924,-7.4462 -23.8279,-20.47705 -8.5631,-13.40316 -8.5631,-31.27404 0,-15.63702 5.5847,-27.178629 5.5846,-11.91392 16.3816,-19.732431 11.1693,-7.81851 27.5509,-11.54161 16.754,-4.09541 38.348,-4.09541 h 56.2188 l -3.3508,32.763281 h -55.4742 q -10.0524,0 -17.8709,1.86155 -7.8185,1.86155 -13.4031,5.58465 -5.5847,3.723099 -8.1909,8.935439 -2.6061,4.84003 -2.6061,11.91392 0,7.4462 3.7231,13.03085 3.7231,5.21234 10.0523,8.19082 6.3293,2.97848 14.8924,2.97848 12.2863,0 23.0833,-4.09541 11.1693,-4.09541 19.7324,-11.54161 8.5631,-7.4462 13.4031,-16.75395 l 9.3078,25.31708 q -7.8185,13.03085 -19.3601,22.71091 -11.1693,9.68006 -24.5725,15.26471 -13.0308,5.58465 -27.1786,5.58465 z"
           style="letter-spacing:0em;fill:#ffffff"
           id="path75" />
      </g>
    </g>
    <g
       inkscape:groupmode="layer"
       id="layer1"
       inkscape:label="Layer 1"
       style="display:inline;mix-blend-mode:normal">
      <path
         class="cls-8"
         d="m 572.59207,532.05211 v -275.54 h 44.06 v 119.51 l -8.32,4.49 a 60.83,60.83 0 0 1 14.38,-24 82.42,82.42 0 0 1 25,-17.87 69.92,69.92 0 0 1 30.22,-6.89 q 21.86,0 36.61,8.94 14.75,8.94 22,26.8 7.28,17.88 7.28,44.68 v 119.88 h -44.49 v -116.54 q 0,-15.26 -4,-25.13 a 28,28 0 0 0 -12.39,-14.52 q -8.37,-4.65 -20.39,-3.91 a 51.08,51.08 0 0 0 -18.21,3.17 41.79,41.79 0 0 0 -14.38,8.93 42.93,42.93 0 0 0 -9.47,13.41 39.59,39.59 0 0 0 -3.46,16.56 v 118 h -44.43 z"
         id="path1882"
         style="display:inline;opacity:1;mix-blend-mode:normal;fill:#c7235d;fill-opacity:1;fill-rule:nonzero;stroke-width:1" />
      <path
         class="cls-8"
         d="m 413.94703,378.25309 v -42.44 h 124.16 v 42.44 z m 37.87,153.76 v -246.09 h 44.43 v 246.09 z"
         id="path1879"
         style="mix-blend-mode:normal;fill:#c7235d;fill-opacity:1" />
      <path
         class="cls-8"
         d="m 272.08697,535.74263 q -20.76,0 -35.87,-9.68 -15.11,-9.68 -23.3,-27.18 -8.19,-17.49 -8.19,-42.07 v -121 h 44.43 v 111.32 q 0,23.09 10.74,36.48 10.74,13.39 30,13.41 a 45.62,45.62 0 0 0 17.3,-3.17 40.19,40.19 0 0 0 22.76,-22.89 46.79,46.79 0 0 0 3.28,-17.5 v -117.65 h 44.43 v 196.2 h -43.34 l -0.73,-40.95 8,-4.47 a 65.36,65.36 0 0 1 -14.75,25 77,77 0 0 1 -24.58,17.68 71.72,71.72 0 0 1 -30.18,6.47 z"
         id="path1876"
         style="mix-blend-mode:normal;fill:#c7235d;fill-opacity:1" />
      <path
         class="cls-8"
         d="m 65.158671,535.75 q -18.57,0 -33.14,-7.45 A 59,59 0 0 1 8.8886706,507.64 q -8.55,-13.22 -8.55,-31.09 0,-15.63 5.46,-27.36 A 49.93,49.93 0 0 1 21.998671,429.64 q 10.74,-7.82 27,-11.73 16.26,-3.91 37.33,-3.91 h 54.999999 l -3.27,32.77 H 83.788671 a 74.32,74.32 0 0 0 -17.48,1.86 39.75,39.75 0 0 0 -13.11,5.58 23.65,23.65 0 0 0 -8,8.75 26.5,26.5 0 0 0 -2.55,12.1 22.41,22.41 0 0 0 3.64,12.85 24.19,24.19 0 0 0 9.84,8.37 33.14,33.14 0 0 0 14.56,3 63.31,63.31 0 0 0 22.760002,-4.09 61.34,61.34 0 0 0 19.119997,-11.55 56.51,56.51 0 0 0 13.11,-16.75 l 9.11,25.32 a 90.77,90.77 0 0 1 -18.76,22.71 91.74,91.74 0 0 1 -23.999997,15.26 66.76,66.76 0 0 1 -26.870002,5.57 z m 54.629999,-3.73 V 406.56 q 0,-16 -10.38,-25.13 -10.379999,-9.13 -26.769999,-9.13 a 61.35,61.35 0 0 0 -27.68,6.15 q -12.37,6.14 -22.94,19.54 L 4.3386706,369.7 Q 21.458671,351.09 42.218671,341.4 a 104.72,104.72 0 0 1 44.79,-9.68 q 22.999999,0 39.509999,7.45 a 56.76,56.76 0 0 1 25.68,22.15 q 9.1,14.72 9.1,35.93 v 134.77 z"
         id="path1873"
         style="mix-blend-mode:normal;fill:#c7235d;fill-opacity:1"
         inkscape:label="path1873" />
    </g>
  </g>
</svg>
